<?xml version="1.0" encoding="UTF-8"?>
<!DOCTYPE svg PUBLIC "-//W3C//DTD SVG 1.1//EN" "http://www.w3.org/Graphics/SVG/1.1/DTD/svg11.dtd">
<!-- Creator: CorelDRAW 2020 (64 Bit) -->
<svg xmlns="http://www.w3.org/2000/svg" xml:space="preserve" width="84.6666mm" height="25.3998mm" version="1.1" style="shape-rendering:geometricPrecision; text-rendering:geometricPrecision; image-rendering:optimizeQuality; fill-rule:evenodd; clip-rule:evenodd"
viewBox="0 0 8466.66 2539.98"
 xmlns:xlink="http://www.w3.org/1999/xlink"
 xmlns:xodm="http://www.corel.com/coreldraw/odm/2003">
 <defs>
  <style type="text/css">
   <![CDATA[
    .fil1 {fill:#06A3B2}
    .fil0 {fill:#FE7D00}
    .fil3 {fill:black;fill-rule:nonzero}
    .fil2 {fill:#06A3B2;fill-rule:nonzero}
   ]]>
  </style>
 </defs>
 <g id="Camada_x0020_1">
  <metadata id="CorelCorpID_0Corel-Layer"/>
  <path class="fil0" d="M906.36 1053.35l-0.54 -313.27 250.73 457.75c7.32,13.86 7.1,16.7 19.37,24.76l80.67 49.78c34.71,20.99 76.89,42.42 114.01,59.55 85.89,39.64 334.44,153.87 432.17,91 33.33,-21.44 23.9,-59.5 23.84,-111.7l0 -729.11c-0.04,-120.02 -3.73,-247.01 0.17,-366.17l-350.5 0.38 0.14 922.26c-5.91,-5.15 -226.05,-408.64 -253.91,-460.2 -41.6,-77 -84.99,-153.13 -126.33,-230.77 -20.37,-38.25 -41.21,-77.81 -62.54,-114.95 -12.55,-21.87 -54.79,-104.64 -64.63,-116.19l-402.13 -0.19c4.16,93.96 0.54,198.44 0.48,293.88 -0.03,48.77 0.01,159.63 0.01,208.39 0,48.85 -13.94,23.79 37.68,83.58 43.41,50.29 76.64,52.04 111.19,89.31 11.81,12.74 24.44,22.86 36.7,34.75 17.43,16.89 135.75,121.91 153.42,127.16z"/>
  <path class="fil1" d="M1835.95 1210.99c7.02,59.54 9.58,105.13 -29.38,136.42 -34.5,27.7 -79.65,33.22 -135.35,30.68 -98.5,-4.47 -190.69,-41.88 -270.49,-72.49 -138.96,-53.3 -320.07,-156.47 -445.09,-244.29 -144.02,-101.17 -213.48,-159.94 -331.31,-272.66 -15.33,-14.67 -28.66,-28.87 -42.71,-44.91 -56.94,-64.96 -105.66,-116.76 -148.91,-198.01 -17.49,-32.85 -40.13,-96.51 -22.81,-141.04 11.89,-30.6 38.39,-50.34 65.92,-63.06 13.9,-6.42 24.65,-9.4 30.18,-13.84 -16.72,-8.44 -63.39,-18.12 -84.24,-22.53 -221.2,-46.72 -264.1,56.06 -145.83,241.7 14.76,23.17 29.33,42.14 44.58,63.1 7.53,10.36 15.48,20.66 23.05,29.66 46.56,55.31 88.97,103.85 141.73,154.43l67.98 65.48c161.41,149.14 340.07,270.38 531.22,380.45 45.44,26.17 93.41,49.7 141.27,72.49 140.39,66.86 338.84,144.25 499.61,139.34 107.9,-3.3 170.75,-57.11 142.97,-163.15 -6.69,-25.55 -14.83,-44.04 -25.42,-67.11l-6.97 -10.66z"/>
  <path class="fil1" d="M905.68 1444.03l-91.5 -54.65c-62.45,-39.6 -111.99,-73.82 -168.8,-120.54l-77.31 -68.34 -0.81 442.07 338.79 -0.22 -0.37 -198.32z"/>
  <path class="fil0" d="M568.07 1205.9l77.31 68.34c56.81,46.72 106.35,80.93 168.8,120.54l91.5 54.64c14.43,5.15 26.09,14.55 41.2,21.85 14.07,6.81 27.43,14.05 41.35,21.07 141.9,71.43 303.77,135.32 462.59,165.14 39.24,7.37 196.48,30.47 227.1,13.7 -0.02,-0.01 -72.74,-7.74 -104.1,-14.42 -94.69,-20.14 -189.7,-51.15 -277.53,-85.26 -229.76,-89.21 -428.12,-205.16 -624.97,-343.28 -48.81,-34.24 -93.01,-68.87 -136.49,-106.03 -23.2,-19.83 -72.92,-64.88 -93.29,-87.15l-22.55 -24.01c-4.99,-5.48 -3.09,-4.25 -9.27,-7.63 8.22,27.94 55.27,89.44 72.14,109.41 8.06,9.55 12.75,14.93 20.37,24.03l65.84 69.06z"/>
  <path class="fil2" d="M2888.83 728.95l0 935.27 -207.1 0 -350.47 -604.44 0 604.44 -207.75 0 0 -935.27 207.75 0 351.12 604.44 0 -604.44 206.45 0zm972.51 447.03l0 41.87c0,71.03 -9.56,134.83 -28.93,191.4 -19.36,56.56 -46.77,104.57 -82.23,144.47 -35.46,39.91 -77.45,70.38 -126.18,91.65 -48.73,21.04 -102.46,31.79 -161.63,31.79 -58.95,0 -112.9,-10.75 -161.85,-31.79 -48.95,-21.27 -91.15,-51.74 -127.05,-91.65 -35.89,-39.9 -63.74,-87.91 -83.32,-144.47 -19.58,-56.57 -29.15,-120.37 -29.15,-191.4l0 -41.87c0,-71.04 9.57,-134.84 29.15,-191.62 19.58,-56.78 47.21,-105.01 82.66,-144.91 35.47,-39.69 77.67,-70.38 126.4,-91.43 48.95,-21.26 102.9,-31.79 161.85,-31.79 59.18,0 113.13,10.53 162.08,31.79 48.73,21.05 90.93,51.74 126.38,91.43 35.47,39.9 63.09,88.13 82.46,144.91 19.58,56.78 29.36,120.58 29.36,191.62zm-209.7 41.87l0 -42.97c0,-47.57 -4.14,-89.67 -12.63,-126.28 -8.48,-36.61 -20.88,-67.31 -36.98,-92.3 -16.09,-24.77 -36.11,-43.41 -60.04,-56.13 -23.72,-12.49 -50.69,-18.85 -80.93,-18.85 -31.33,0 -58.73,6.36 -82.23,18.85 -23.28,12.72 -42.86,31.36 -58.95,56.13 -15.89,24.99 -27.84,55.69 -36.33,92.3 -8.26,36.61 -12.4,78.71 -12.4,126.28l0 42.97c0,47.14 4.14,89.01 12.4,125.62 8.49,36.62 20.66,67.53 36.77,92.74 16.09,25.21 35.89,44.29 59.6,57.22 23.5,12.72 51.12,19.3 82.45,19.3 30.23,0 57,-6.58 80.71,-19.3 23.5,-12.93 43.51,-32.01 59.61,-57.22 16.09,-25.21 28.28,-56.12 36.54,-92.74 8.27,-36.61 12.41,-78.48 12.41,-125.62zm986.65 285.23l0.66 161.14 -469.03 0 0.44 -161.8 467.93 0.66zm-397.66 -774.13l0.64 935.27 -207.31 0 -0.44 -935.27 207.11 0zm942.49 178.02l-239.73 757.25 -221.68 0 343.51 -935.27 140.3 0 -22.4 178.02zm198.84 757.25l-240.17 -757.25 -25.02 -178.02 142.28 0 344.8 935.27 -221.89 0zm-10.23 -348.15l0 161.8 -483.59 0 0 -161.8 483.59 0zm834.82 101.51c0,-15.79 -2.17,-30.04 -6.97,-42.75 -4.56,-12.5 -13.05,-24.34 -25.45,-34.86 -12.4,-10.75 -29.8,-21.71 -52.21,-32.45 -22.63,-10.96 -51.99,-22.36 -88.54,-33.76 -41.77,-13.82 -81.36,-29.38 -119,-46.7 -37.63,-17.32 -70.91,-37.49 -100.28,-60.73 -29.38,-23.02 -52.43,-49.99 -69.19,-80.9 -16.75,-30.69 -25.23,-66.65 -25.23,-107.86 0,-39.69 8.7,-75.86 26.11,-107.87 17.4,-32.23 41.98,-59.63 73.31,-82.43 31.54,-23.02 68.52,-40.56 110.95,-52.84 42.42,-12.06 89.19,-18.2 140.31,-18.2 67.88,0 127.71,12.06 179.26,36.18 51.78,24.33 92.02,58.1 120.73,101.51 28.94,43.4 43.51,93.83 43.51,151.27l-206.66 0c0,-25.21 -5.23,-47.58 -15.45,-67.09 -10.43,-19.51 -26.1,-34.86 -47.21,-45.82 -21.09,-11.18 -47.2,-16.88 -78.74,-16.88 -30.68,0 -56.13,4.6 -76.8,13.81 -20.67,9.21 -36.11,21.71 -46.55,37.71 -10.44,15.79 -15.66,33.11 -15.66,51.96 0,14.91 3.91,28.5 11.96,40.78 7.83,12.28 19.15,23.46 34.38,33.98 15,10.52 33.71,20.61 55.68,30.04 22.19,9.42 47.42,18.41 75.92,26.96 49.61,15.79 93.77,33.33 132.27,52.62 38.29,19.29 70.7,41 97.03,65.55 26.54,24.34 46.34,51.96 59.6,82.87 13.5,30.7 20.23,65.56 20.23,104.58 0,41.66 -8.04,78.49 -23.92,110.5 -15.89,32.23 -38.95,59.41 -68.96,81.99 -29.81,22.37 -65.7,39.47 -107.26,50.87 -41.76,11.62 -88.32,17.54 -139.66,17.54 -46.77,0 -92.89,-6.14 -138.35,-18.42 -45.47,-12.28 -86.59,-30.91 -123.35,-56.13 -36.55,-25.21 -65.92,-57.44 -87.89,-96.68 -21.76,-39.24 -32.85,-85.72 -32.85,-139.65l207.75 0c0,28.28 4.14,51.95 12.19,71.47 8.04,19.51 19.57,35.29 34.81,47.35 15.01,11.84 33.49,20.39 55.04,25.65 21.75,5.05 45.9,7.68 72.65,7.68 31.11,0 56.13,-4.39 75.49,-13.16 19.36,-8.77 33.72,-20.83 43.08,-36.39 9.34,-15.35 13.92,-32.45 13.92,-51.3zm907.68 -66.87l206.45 0c-3.48,64.24 -20.67,121.02 -51.99,169.91 -31.11,49.11 -74.4,87.47 -129.65,115.1 -55.26,27.62 -120.96,41.44 -196.88,41.44 -60.92,0 -115.3,-10.53 -163.16,-31.58 -48.07,-21.04 -88.76,-51.08 -122.04,-90.32 -33.51,-39.03 -58.96,-86.38 -76.58,-141.85 -17.61,-55.47 -26.32,-118.17 -26.32,-187.89l0 -57.22c0,-69.71 9.13,-132.42 27.19,-188.1 18.28,-55.69 44.59,-103.26 78.54,-142.73 33.94,-39.24 74.83,-69.5 122.26,-90.54 47.64,-20.83 100.71,-31.35 159.46,-31.35 78.96,0 145.75,14.25 200.14,42.97 54.38,28.72 96.58,68.18 126.39,118.17 30.02,50.2 47.86,107.2 53.95,171.44l-207.1 0c-1.74,-36.39 -8.49,-67.09 -20.46,-92.08 -11.95,-24.99 -30.23,-44.07 -54.81,-56.78 -24.59,-12.94 -57.43,-19.3 -98.11,-19.3 -29.81,0 -55.92,5.49 -78.11,16.67 -22.4,11.18 -40.89,28.5 -55.46,51.96 -14.58,23.67 -25.67,53.49 -32.86,89.66 -7.17,36.18 -10.87,79.15 -10.87,128.7l0 58.53c0,49.33 3.26,91.86 9.57,127.82 6.52,35.96 16.75,65.77 30.89,89.23 14.36,23.68 32.63,41.22 55.25,52.62 22.42,11.62 49.82,17.54 82.24,17.54 36.98,0 67.65,-5.92 92.45,-17.76 24.59,-11.84 43.51,-29.6 56.57,-53.72 13.27,-23.89 20.88,-54.15 23.05,-90.54zm1140.69 -174.73l0 41.87c0,71.03 -9.57,134.83 -28.94,191.4 -19.36,56.56 -46.76,104.57 -82.23,144.47 -35.45,39.91 -77.44,70.38 -126.17,91.65 -48.73,21.04 -102.47,31.79 -161.64,31.79 -58.95,0 -112.9,-10.75 -161.85,-31.79 -48.94,-21.27 -91.15,-51.74 -127.05,-91.65 -35.89,-39.9 -63.74,-87.91 -83.32,-144.47 -19.57,-56.57 -29.14,-120.37 -29.14,-191.4l0 -41.87c0,-71.04 9.57,-134.84 29.14,-191.62 19.58,-56.78 47.22,-105.01 82.67,-144.91 35.46,-39.69 77.66,-70.38 126.4,-91.43 48.94,-21.26 102.89,-31.79 161.84,-31.79 59.18,0 113.13,10.53 162.08,31.79 48.73,21.05 90.93,51.74 126.39,91.43 35.46,39.9 63.09,88.13 82.46,144.91 19.57,56.78 29.36,120.58 29.36,191.62zm-209.71 41.87l0 -42.97c0,-47.57 -4.14,-89.67 -12.62,-126.28 -8.48,-36.61 -20.89,-67.31 -36.98,-92.3 -16.1,-24.77 -36.11,-43.41 -60.05,-56.13 -23.71,-12.49 -50.68,-18.85 -80.93,-18.85 -31.32,0 -58.73,6.36 -82.22,18.85 -23.28,12.72 -42.86,31.36 -58.96,56.13 -15.88,24.99 -27.84,55.69 -36.32,92.3 -8.27,36.61 -12.41,78.71 -12.41,126.28l0 42.97c0,47.14 4.14,89.01 12.41,125.62 8.48,36.62 20.66,67.53 36.76,92.74 16.1,25.21 35.89,44.29 59.61,57.22 23.49,12.72 51.12,19.3 82.44,19.3 30.24,0 57,-6.58 80.72,-19.3 23.49,-12.93 43.51,-32.01 59.6,-57.22 16.1,-25.21 28.28,-56.12 36.55,-92.74 8.26,-36.61 12.4,-78.48 12.4,-125.62z"/>
  <path class="fil3" d="M2141.02 2120.96l37.38 -3.64c1.75,16.39 5.88,29.82 12.39,40.37 6.51,10.48 16.59,18.98 30.25,25.5 13.65,6.45 29.04,9.72 46.13,9.72 15.19,0 28.56,-2.43 40.18,-7.37 11.62,-4.93 20.23,-11.68 25.9,-20.26 5.67,-8.57 8.54,-17.91 8.54,-27.93 0,-10.17 -2.73,-19.04 -8.19,-26.71 -5.46,-7.59 -14.49,-13.96 -27.09,-19.2 -8.05,-3.34 -25.9,-8.65 -53.56,-15.86 -27.64,-7.21 -46.97,-13.96 -58.03,-20.34 -14.35,-8.2 -24.99,-18.36 -31.99,-30.43 -7.08,-12.07 -10.57,-25.65 -10.57,-40.6 0,-16.55 4.33,-31.95 12.95,-46.22 8.61,-14.34 21.14,-25.19 37.73,-32.63 16.52,-7.44 34.93,-11.16 55.17,-11.16 22.26,0 41.93,3.87 58.94,11.69 17.02,7.74 30.1,19.2 39.27,34.38 9.17,15.1 14.07,32.25 14.77,51.38l-38.21 3.18c-2.03,-20.56 -8.97,-36.12 -20.8,-46.59 -11.83,-10.55 -29.33,-15.79 -52.43,-15.79 -24.08,0 -41.66,4.78 -52.64,14.34 -11,9.57 -16.52,21.1 -16.52,34.61 0,11.69 3.92,21.33 11.68,28.91 7.71,7.52 27.66,15.33 60,23.23 32.34,7.96 54.53,14.87 66.57,20.79 17.44,8.73 30.38,19.73 38.72,33.16 8.33,13.36 12.45,28.77 12.45,46.22 0,17.38 -4.55,33.62 -13.72,48.95 -9.17,15.33 -22.25,27.24 -39.41,35.74 -17.15,8.5 -36.4,12.75 -57.9,12.75 -27.15,0 -49.91,-4.32 -68.25,-12.9 -18.41,-8.57 -32.76,-21.47 -43.19,-38.78 -10.5,-17.22 -15.96,-36.73 -16.52,-58.51zm356.85 -53.96c0,-54.03 13.44,-96.38 40.25,-126.96 26.82,-30.58 61.4,-45.84 103.82,-45.84 27.79,0 52.78,7.21 75.12,21.56 22.26,14.34 39.27,34.37 50.96,60.1 11.69,25.65 17.57,54.79 17.57,87.35 0,33.01 -6.16,62.61 -18.48,88.64 -12.32,26.11 -29.75,45.84 -52.29,59.19 -22.61,13.44 -46.98,20.11 -73.09,20.11 -28.36,0 -53.62,-7.43 -75.96,-22.23 -22.25,-14.8 -39.2,-34.99 -50.68,-60.64 -11.48,-25.57 -17.22,-52.67 -17.22,-81.28zm41.16 0.76c0,39.24 9.73,70.13 29.2,92.66 19.45,22.54 43.89,33.85 73.29,33.85 29.96,0 54.53,-11.38 73.92,-34.15 19.33,-22.77 28.99,-55.1 28.99,-96.99 0,-26.48 -4.14,-49.63 -12.39,-69.36 -8.27,-19.73 -20.38,-35.06 -36.26,-45.91 -15.97,-10.86 -33.82,-16.32 -53.63,-16.32 -28.14,0 -52.36,10.47 -72.67,31.42 -20.3,20.94 -30.45,55.85 -30.45,104.8zm371.91 157.93l0 -326.02 39.9 0 0 287.77 147.85 0 0 38.25 -187.75 0zm508.13 -326.02l39.9 0 0 188.28c0,32.78 -3.43,58.81 -10.22,78.09 -6.86,19.2 -19.18,34.91 -36.97,46.98 -17.85,12.06 -41.16,18.13 -70.14,18.13 -28.07,0 -51.1,-5.23 -68.95,-15.78 -17.93,-10.55 -30.67,-25.73 -38.29,-45.69 -7.63,-19.96 -11.49,-47.2 -11.49,-81.73l0 -188.28 39.91 0 0 188.2c0,28.31 2.45,49.26 7.28,62.61 4.83,13.44 13.08,23.83 24.92,31.04 11.76,7.29 26.18,10.93 43.19,10.93 29.12,0 49.91,-7.21 62.3,-21.55 12.4,-14.42 18.56,-42.05 18.56,-83.03l0 -188.2zm396.4 211.65l39.9 10.93c-8.33,35.44 -23.31,62.38 -44.94,80.98 -21.63,18.59 -48.1,27.92 -79.39,27.92 -32.34,0 -58.65,-7.13 -78.96,-21.47 -20.3,-14.27 -35.71,-34.99 -46.28,-62.08 -10.57,-27.17 -15.88,-56.24 -15.88,-87.35 0,-33.92 5.95,-63.52 17.91,-88.79 11.98,-25.27 28.99,-44.47 51.04,-57.6 22.05,-13.13 46.35,-19.66 72.8,-19.66 30.11,0 55.38,8.27 75.82,24.89 20.51,16.62 34.79,39.92 42.85,69.97l-39.07 10.02c-6.93,-23.68 -17.08,-40.98 -30.31,-51.75 -13.23,-10.86 -29.89,-16.24 -49.98,-16.24 -23.03,0 -42.36,5.99 -57.83,17.98 -15.47,11.99 -26.39,28.16 -32.62,48.34 -6.3,20.27 -9.45,41.14 -9.45,62.61 0,27.7 3.71,51.91 11.13,72.55 7.42,20.72 18.97,36.13 34.65,46.37 15.68,10.25 32.63,15.33 50.89,15.33 22.27,0 41.03,-6.98 56.43,-20.87 15.4,-13.96 25.84,-34.6 31.29,-62.08zm-116.49 153.53l10.65 -39.16 27.3 0 -6.8 23.68c11.7,1.52 20.52,5.39 26.47,11.68 5.95,6.23 8.89,13.21 8.89,20.87 0,11.08 -4.97,20.87 -14.92,29.37 -9.87,8.5 -24.85,12.75 -44.8,12.75 -11.26,0 -21.21,0 -29.75,0l2.1 -28.23c8.9,0.31 15.33,0.46 19.53,0.46 12.95,0 22.12,-1.9 27.37,-5.77 4,-2.96 6.02,-6.53 6.02,-10.85 0,-2.66 -0.76,-5.01 -2.38,-7.06 -1.54,-2.05 -4.4,-3.87 -8.6,-5.31 -4.27,-1.44 -11.27,-2.28 -21.08,-2.43zm269.28 -197.85c0,-54.03 13.44,-96.38 40.25,-126.96 26.82,-30.58 61.4,-45.84 103.82,-45.84 27.79,0 52.78,7.21 75.12,21.56 22.26,14.34 39.27,34.37 50.96,60.1 11.69,25.65 17.57,54.79 17.57,87.35 0,33.01 -6.16,62.61 -18.48,88.64 -12.32,26.11 -29.75,45.84 -52.29,59.19 -22.61,13.44 -46.98,20.11 -73.09,20.11 -28.36,0 -53.62,-7.43 -75.96,-22.23 -22.25,-14.8 -39.2,-34.99 -50.68,-60.64 -11.48,-25.57 -17.22,-52.67 -17.22,-81.28zm41.16 0.76c0,39.24 9.73,70.13 29.2,92.66 19.45,22.54 43.89,33.85 73.29,33.85 29.96,0 54.53,-11.38 73.92,-34.15 19.33,-22.77 28.99,-55.1 28.99,-96.99 0,-26.48 -4.14,-49.63 -12.39,-69.36 -8.27,-19.73 -20.38,-35.06 -36.26,-45.91 -15.97,-10.86 -33.82,-16.32 -53.63,-16.32 -28.14,0 -52.36,10.47 -72.67,31.42 -20.3,20.94 -30.45,55.85 -30.45,104.8zm33.61 -187.67c-0.14,-15.26 3.77,-27.4 11.69,-36.51 7.76,-9.03 17.78,-13.58 29.96,-13.58 8.46,0 20.02,3.87 34.58,11.69 8.05,4.32 14.49,6.52 19.25,6.52 4.41,0 7.77,-1.29 10.08,-3.87 2.31,-2.5 3.92,-7.66 4.9,-15.25l26.47 0c-0.43,16.85 -4.35,29.44 -11.76,37.87 -7.43,8.42 -16.81,12.67 -28.29,12.67 -8.54,0 -19.88,-4.17 -33.88,-12.44 -9.17,-5.39 -15.89,-8.05 -20.16,-8.05 -4.63,0 -8.41,1.75 -11.2,5.31 -3.01,3.49 -4.49,8.73 -4.35,15.64l-27.29 0zm340.82 345.6l0 -326.02 217.15 0 0 38.25 -177.25 0 0 100.17 165.91 0 0 38.25 -165.91 0 0 111.1 184.39 0 0 38.25 -224.29 0zm342.15 -104.73l37.38 -3.64c1.75,16.39 5.89,29.82 12.39,40.37 6.51,10.48 16.59,18.98 30.25,25.5 13.65,6.45 29.04,9.72 46.13,9.72 15.19,0 28.56,-2.43 40.18,-7.37 11.62,-4.93 20.23,-11.68 25.9,-20.26 5.68,-8.57 8.54,-17.91 8.54,-27.93 0,-10.17 -2.73,-19.04 -8.19,-26.71 -5.46,-7.59 -14.49,-13.96 -27.09,-19.2 -8.05,-3.34 -25.9,-8.65 -53.56,-15.86 -27.64,-7.21 -46.97,-13.96 -58.03,-20.34 -14.35,-8.2 -24.99,-18.36 -31.99,-30.43 -7.07,-12.07 -10.57,-25.65 -10.57,-40.6 0,-16.55 4.33,-31.95 12.95,-46.22 8.61,-14.34 21.14,-25.19 37.73,-32.63 16.52,-7.44 34.93,-11.16 55.17,-11.16 22.26,0 41.93,3.87 58.94,11.69 17.02,7.74 30.11,19.2 39.27,34.38 9.17,15.1 14.07,32.25 14.77,51.38l-38.21 3.18c-2.03,-20.56 -8.97,-36.12 -20.8,-46.59 -11.83,-10.55 -29.33,-15.79 -52.43,-15.79 -24.08,0 -41.66,4.78 -52.64,14.34 -11,9.57 -16.52,21.1 -16.52,34.61 0,11.69 3.92,21.33 11.68,28.91 7.71,7.52 27.66,15.33 60,23.23 32.34,7.96 54.54,14.87 66.57,20.79 17.44,8.73 30.38,19.73 38.72,33.16 8.33,13.36 12.45,28.77 12.45,46.22 0,17.38 -4.55,33.62 -13.72,48.95 -9.16,15.33 -22.25,27.24 -39.41,35.74 -17.15,8.5 -36.4,12.75 -57.89,12.75 -27.16,0 -49.92,-4.32 -68.26,-12.9 -18.41,-8.57 -32.76,-21.47 -43.19,-38.78 -10.5,-17.22 -15.96,-36.73 -16.52,-58.51zm562.42 104.73l0 -326.02 217.16 0 0 38.25 -177.25 0 0 100.17 165.91 0 0 38.25 -165.91 0 0 111.1 184.39 0 0 38.25 -224.3 0zm353.5 0l0 -326.02 39.9 0 0 287.77 147.85 0 0 38.25 -187.75 0zm311.97 0l0 -326.02 217.15 0 0 38.25 -177.25 0 0 100.17 165.92 0 0 38.25 -165.92 0 0 111.1 184.39 0 0 38.25 -224.29 0zm81.9 -346.06l26.88 -62.38 48.73 0 -44.94 62.38 -30.67 0zm349.71 346.06l0 -287.77 -99.12 0 0 -38.25 238.16 0 0 38.25 -99.13 0 0 287.77 -39.91 0zm256.82 0l0 -326.02 133.3 0c26.81,0 47.18,2.96 61.11,8.8 13.93,5.84 25.06,16.16 33.39,30.96 8.33,14.8 12.47,31.19 12.47,49.1 0,23.15 -6.94,42.65 -20.73,58.51 -13.79,15.87 -35.07,25.88 -63.91,30.21 10.56,5.46 18.55,10.93 24.01,16.24 11.62,11.53 22.61,26.03 32.9,43.41l52.01 88.79 -49.7 0 -39.76 -67.85c-11.55,-19.65 -21.15,-34.6 -28.64,-45 -7.55,-10.4 -14.28,-17.6 -20.23,-21.78 -5.87,-4.1 -11.97,-6.98 -18.12,-8.65 -4.49,-0.99 -11.84,-1.52 -22.13,-1.52l-46.06 0 0 144.8 -39.91 0zm39.91 -182.14l85.4 0c18.21,0 32.35,-2.05 42.57,-6.14 10.22,-4.03 17.99,-10.55 23.24,-19.58 5.32,-8.96 7.98,-18.67 7.98,-29.22 0,-15.41 -5.11,-28.16 -15.4,-38.1 -10.29,-9.94 -26.54,-14.87 -48.72,-14.87l-95.07 0 0 107.91zm345.16 182.14l0 -326.02 39.9 0 0 326.02 -39.9 0zm400.04 -114.37l39.91 10.93c-8.33,35.44 -23.31,62.38 -44.94,80.98 -21.63,18.59 -48.1,27.92 -79.39,27.92 -32.34,0 -58.66,-7.13 -78.96,-21.47 -20.3,-14.27 -35.71,-34.99 -46.28,-62.08 -10.57,-27.17 -15.89,-56.24 -15.89,-87.35 0,-33.92 5.95,-63.52 17.92,-88.79 11.97,-25.27 28.98,-44.47 51.04,-57.6 22.04,-13.13 46.34,-19.66 72.8,-19.66 30.11,0 55.37,8.27 75.81,24.89 20.52,16.62 34.8,39.92 42.85,69.97l-39.06 10.02c-6.93,-23.68 -17.09,-40.98 -30.32,-51.75 -13.22,-10.86 -29.88,-16.24 -49.97,-16.24 -23.04,0 -42.36,5.99 -57.83,17.98 -15.47,11.99 -26.39,28.16 -32.62,48.34 -6.3,20.27 -9.46,41.14 -9.46,62.61 0,27.7 3.71,51.91 11.14,72.55 7.41,20.72 18.96,36.13 34.65,46.37 15.68,10.25 32.62,15.33 50.89,15.33 22.27,0 41.03,-6.98 56.42,-20.87 15.41,-13.96 25.84,-34.6 31.29,-62.08zm132.01 114.37l115.36 -326.02 43.75 0 122.45 326.02 -45.3 0 -34.79 -98.81 -126.64 0 -32.62 98.81 -42.21 0zm86.52 -133.87l102.49 0 -31.37 -90.38c-9.44,-27.48 -16.58,-50.17 -21.55,-68.08 -4.14,21.25 -9.67,42.12 -16.6,62.76l-32.97 95.7zm289.44 29.14l37.38 -3.64c1.75,16.39 5.88,29.82 12.39,40.37 6.51,10.48 16.59,18.98 30.24,25.5 13.66,6.45 29.05,9.72 46.14,9.72 15.19,0 28.56,-2.43 40.18,-7.37 11.62,-4.93 20.23,-11.68 25.9,-20.26 5.67,-8.57 8.54,-17.91 8.54,-27.93 0,-10.17 -2.73,-19.04 -8.19,-26.71 -5.46,-7.59 -14.49,-13.96 -27.09,-19.2 -8.05,-3.34 -25.9,-8.65 -53.56,-15.86 -27.64,-7.21 -46.97,-13.96 -58.03,-20.34 -14.35,-8.2 -24.99,-18.36 -31.99,-30.43 -7.08,-12.07 -10.57,-25.65 -10.57,-40.6 0,-16.55 4.33,-31.95 12.95,-46.22 8.61,-14.34 21.14,-25.19 37.73,-32.63 16.52,-7.44 34.93,-11.16 55.17,-11.16 22.26,0 41.92,3.87 58.93,11.69 17.02,7.74 30.11,19.2 39.28,34.38 9.17,15.1 14.07,32.25 14.77,51.38l-38.22 3.18c-2.03,-20.56 -8.96,-36.12 -20.79,-46.59 -11.83,-10.55 -29.33,-15.79 -52.43,-15.79 -24.09,0 -41.66,4.78 -52.64,14.34 -11,9.57 -16.53,21.1 -16.53,34.61 0,11.69 3.92,21.33 11.69,28.91 7.7,7.52 27.66,15.33 60,23.23 32.34,7.96 54.53,14.87 66.57,20.79 17.44,8.73 30.38,19.73 38.72,33.16 8.33,13.36 12.45,28.77 12.45,46.22 0,17.38 -4.55,33.62 -13.72,48.95 -9.17,15.33 -22.26,27.24 -39.41,35.74 -17.15,8.5 -36.4,12.75 -57.9,12.75 -27.15,0 -49.91,-4.32 -68.25,-12.9 -18.41,-8.57 -32.76,-21.47 -43.19,-38.78 -10.5,-17.22 -15.97,-36.73 -16.52,-58.51z"/>
 </g>
</svg>
